<?xml version="1.0" encoding="UTF-8" standalone="no"?>
<!-- Created with Inkscape (http://www.inkscape.org/) -->

<svg
   xmlns:dc="http://purl.org/dc/elements/1.1/"
   xmlns:cc="http://creativecommons.org/ns#"
   xmlns:rdf="http://www.w3.org/1999/02/22-rdf-syntax-ns#"
   xmlns:svg="http://www.w3.org/2000/svg"
   xmlns="http://www.w3.org/2000/svg"
   xmlns:sodipodi="http://sodipodi.sourceforge.net/DTD/sodipodi-0.dtd"
   xmlns:inkscape="http://www.inkscape.org/namespaces/inkscape"
   width="200.14423mm"
   height="91.602844mm"
   viewBox="0 0 200.14423 91.602845"
   version="1.1"
   id="svg8"
   inkscape:version="0.92.4 (5da689c313, 2019-01-14)"
   sodipodi:docname="logo_title.svg">
  <defs
     id="defs2" />
  <sodipodi:namedview
     id="base"
     pagecolor="#ffffff"
     bordercolor="#666666"
     borderopacity="1.0"
     inkscape:pageopacity="0.0"
     inkscape:pageshadow="2"
     inkscape:zoom="0.98994949"
     inkscape:cx="247.20087"
     inkscape:cy="-13.200328"
     inkscape:document-units="mm"
     inkscape:current-layer="layer1"
     showgrid="false"
     inkscape:object-paths="true"
     inkscape:snap-center="true"
     inkscape:snap-midpoints="true"
     inkscape:snap-global="true"
     fit-margin-top="0"
     fit-margin-left="0"
     fit-margin-right="0"
     fit-margin-bottom="0"
     inkscape:window-width="2560"
     inkscape:window-height="1376"
     inkscape:window-x="0"
     inkscape:window-y="27"
     inkscape:window-maximized="1" />
  <metadata
     id="metadata5">
    <rdf:RDF>
      <cc:Work
         rdf:about="">
        <dc:format>image/svg+xml</dc:format>
        <dc:type
           rdf:resource="http://purl.org/dc/dcmitype/StillImage" />
        <dc:title></dc:title>
      </cc:Work>
    </rdf:RDF>
  </metadata>
  <g
     inkscape:label="Layer 1"
     inkscape:groupmode="layer"
     id="layer1"
     transform="translate(-11.776247,-186.3762)">
    <g
       id="g5085"
       transform="translate(2.2678571,14.741071)">
      <g
         transform="matrix(-1,0,0,1,214.74853,120.71456)"
         id="g4864"
         style="stroke:#e1c846;stroke-opacity:1">
        <path
           sodipodi:nodetypes="cc"
           inkscape:connector-curvature="0"
           id="path4850"
           d="m 171.3147,79.299469 c 14.09721,-9.2822 24.63527,-2.462157 32.31997,3.435278"
           style="fill:none;stroke:#e1c846;stroke-width:3.17499995;stroke-linecap:round;stroke-linejoin:miter;stroke-miterlimit:4;stroke-dasharray:none;stroke-opacity:1" />
        <path
           sodipodi:nodetypes="cc"
           inkscape:connector-curvature="0"
           id="path4852"
           d="M 178.65113,75.732355 173.837,83.566902"
           style="fill:none;stroke:#e1c846;stroke-width:1.85208333;stroke-linecap:butt;stroke-linejoin:miter;stroke-miterlimit:4;stroke-dasharray:none;stroke-opacity:1" />
        <path
           style="fill:none;stroke:#e1c846;stroke-width:1.85208333;stroke-linecap:butt;stroke-linejoin:miter;stroke-miterlimit:4;stroke-dasharray:none;stroke-opacity:1"
           d="M 184.28649,74.752868 176.85393,87.40236"
           id="path4854"
           inkscape:connector-curvature="0"
           sodipodi:nodetypes="cc" />
        <path
           sodipodi:nodetypes="cc"
           inkscape:connector-curvature="0"
           id="path4856"
           d="m 188.86093,75.106278 -8.901,15.148647"
           style="fill:none;stroke:#e1c846;stroke-width:1.85208333;stroke-linecap:butt;stroke-linejoin:miter;stroke-miterlimit:4;stroke-dasharray:none;stroke-opacity:1" />
        <path
           style="fill:none;stroke:#e1c846;stroke-width:1.85208333;stroke-linecap:butt;stroke-linejoin:miter;stroke-miterlimit:4;stroke-dasharray:none;stroke-opacity:1"
           d="m 193.57885,76.537686 -9.52197,16.205471"
           id="path4858"
           inkscape:connector-curvature="0"
           sodipodi:nodetypes="cc" />
        <path
           sodipodi:nodetypes="cc"
           inkscape:connector-curvature="0"
           id="path4860"
           d="m 197.68466,78.61522 -9.12595,15.531479"
           style="fill:none;stroke:#e1c846;stroke-width:1.85208333;stroke-linecap:butt;stroke-linejoin:miter;stroke-miterlimit:4;stroke-dasharray:none;stroke-opacity:1" />
        <path
           style="fill:none;stroke:#e1c846;stroke-width:1.85208333;stroke-linecap:butt;stroke-linejoin:miter;stroke-miterlimit:4;stroke-dasharray:none;stroke-opacity:1"
           d="m 201.3746,81.049297 -7.78658,13.252008"
           id="path4862"
           inkscape:connector-curvature="0"
           sodipodi:nodetypes="cc" />
      </g>
      <g
         transform="translate(4.4124795,120.71456)"
         id="g4848"
         style="stroke:#e1c846;stroke-opacity:1">
        <path
           style="fill:none;stroke:#e1c846;stroke-width:3.17499995;stroke-linecap:round;stroke-linejoin:miter;stroke-miterlimit:4;stroke-dasharray:none;stroke-opacity:1"
           d="m 171.3147,79.299469 c 14.09721,-9.2822 24.63527,-2.462157 32.31997,3.435278"
           id="path4827"
           inkscape:connector-curvature="0"
           sodipodi:nodetypes="cc" />
        <path
           style="fill:none;stroke:#e1c846;stroke-width:1.85208333;stroke-linecap:butt;stroke-linejoin:miter;stroke-miterlimit:4;stroke-dasharray:none;stroke-opacity:1"
           d="M 178.65113,75.732355 173.837,83.566902"
           id="path4829"
           inkscape:connector-curvature="0"
           sodipodi:nodetypes="cc" />
        <path
           sodipodi:nodetypes="cc"
           inkscape:connector-curvature="0"
           id="path4831"
           d="M 184.28649,74.752868 176.85393,87.40236"
           style="fill:none;stroke:#e1c846;stroke-width:1.85208333;stroke-linecap:butt;stroke-linejoin:miter;stroke-miterlimit:4;stroke-dasharray:none;stroke-opacity:1" />
        <path
           style="fill:none;stroke:#e1c846;stroke-width:1.85208333;stroke-linecap:butt;stroke-linejoin:miter;stroke-miterlimit:4;stroke-dasharray:none;stroke-opacity:1"
           d="m 188.86093,75.106278 -8.901,15.148647"
           id="path4833"
           inkscape:connector-curvature="0"
           sodipodi:nodetypes="cc" />
        <path
           sodipodi:nodetypes="cc"
           inkscape:connector-curvature="0"
           id="path4835"
           d="m 193.57885,76.537686 -9.52197,16.205471"
           style="fill:none;stroke:#e1c846;stroke-width:1.85208333;stroke-linecap:butt;stroke-linejoin:miter;stroke-miterlimit:4;stroke-dasharray:none;stroke-opacity:1" />
        <path
           style="fill:none;stroke:#e1c846;stroke-width:1.85208333;stroke-linecap:butt;stroke-linejoin:miter;stroke-miterlimit:4;stroke-dasharray:none;stroke-opacity:1"
           d="m 197.68466,78.61522 -9.12595,15.531479"
           id="path4837"
           inkscape:connector-curvature="0"
           sodipodi:nodetypes="cc" />
        <path
           sodipodi:nodetypes="cc"
           inkscape:connector-curvature="0"
           id="path4839"
           d="m 201.3746,81.049297 -7.78658,13.252008"
           style="fill:none;stroke:#e1c846;stroke-width:1.85208333;stroke-linecap:butt;stroke-linejoin:miter;stroke-miterlimit:4;stroke-dasharray:none;stroke-opacity:1" />
      </g>
      <path
         inkscape:connector-curvature="0"
         id="path4962"
         d="m 104.69456,201.73113 c 6.51861,-1.10176 13.23811,-0.73011 20.00649,0"
         style="fill:none;stroke:#756a5e;stroke-width:3.52079058;stroke-linecap:round;stroke-linejoin:round;stroke-miterlimit:4;stroke-dasharray:none;stroke-opacity:1" />
      <path
         inkscape:connector-curvature="0"
         id="path4766"
         d="m 97.394628,241.53867 c -1.97865,-15.92481 5.092172,-39.80757 17.197912,-68.11796 12.10574,28.31039 19.17656,52.19315 17.19791,68.11796"
         style="fill:none;stroke:#756a5e;stroke-width:3.52079058;stroke-linecap:round;stroke-linejoin:round;stroke-miterlimit:4;stroke-dasharray:none;stroke-opacity:1" />
      <path
         style="fill:none;stroke:#756a5e;stroke-width:3.466429;stroke-linecap:round;stroke-linejoin:round;stroke-miterlimit:4;stroke-dasharray:none;stroke-opacity:1"
         d="m 152.67364,173.42071 c -6.92729,-0.0345 -17.10343,8.74574 -17.10343,34.07107 0,25.32535 10.17614,34.10556 17.10343,34.07108"
         id="path4806"
         inkscape:connector-curvature="0"
         sodipodi:nodetypes="ccc" />
      <path
         sodipodi:nodetypes="ccc"
         inkscape:connector-curvature="0"
         id="path4808"
         d="m 69.225337,173.42071 c 7.516086,22.15979 -1.124005,47.00303 -3.239346,68.14208 h 17.37252"
         style="fill:none;stroke:#756a5e;stroke-width:3.44592977;stroke-linecap:round;stroke-linejoin:round;stroke-miterlimit:4;stroke-dasharray:none;stroke-opacity:1" />
      <path
         sodipodi:nodetypes="cszcsc"
         inkscape:connector-curvature="0"
         id="path4816"
         d="m 88.869646,241.53941 c 1.117667,-3.89245 2.330892,-10.02106 0.676492,-18.3323 -1.714197,-8.61163 -5.543239,-17.23127 -8.012972,-23.95581 -2.469732,-6.72453 -4.158217,-19.41584 0.0139,-25.83059 16.632556,-1.41362 19.946964,20.43512 0.106306,21.19981 -0.385872,0.0149 -1.4541,-0.0365 -1.4541,-0.0365"
         style="fill:none;stroke:#756a5e;stroke-width:3.44497371;stroke-linecap:round;stroke-linejoin:round;stroke-miterlimit:4;stroke-dasharray:none;stroke-opacity:1" />
      <path
         style="fill:none;stroke:#756a5e;stroke-width:3.4395833;stroke-linecap:round;stroke-linejoin:round;stroke-miterlimit:4;stroke-dasharray:none;stroke-opacity:1"
         d="m 175.72718,200.01402 c -10.16913,9.99996 -15.52093,30.66058 -15.7689,41.56042 v -68.15373 c 6.35328,5.35642 8.16255,11.19674 15.63526,26.25923 7.47272,15.06249 19.02513,17.62104 27.59558,13.96484"
         id="path4825"
         inkscape:connector-curvature="0"
         sodipodi:nodetypes="ccczc" />
      <path
         sodipodi:nodetypes="ccczc"
         inkscape:connector-curvature="0"
         id="path4822"
         d="m 43.433828,200.01403 c 10.169127,9.99995 15.52093,30.66057 15.768902,41.56041 v -68.15373 c -6.353282,5.35643 -8.162548,11.19674 -15.635266,26.25923 -7.472718,15.06249 -19.025128,17.62104 -27.595578,13.96484"
         style="fill:none;stroke:#756a5e;stroke-width:3.4395833;stroke-linecap:round;stroke-linejoin:round;stroke-miterlimit:4;stroke-dasharray:none;stroke-opacity:1" />
    </g>
    <path
       inkscape:connector-curvature="0"
       id="path4784"
       style="font-style:normal;font-variant:normal;font-weight:normal;font-stretch:normal;font-size:13.71528149px;line-height:1.25;font-family:BenchNine;-inkscape-font-specification:BenchNine;letter-spacing:0px;word-spacing:0px;fill:#756a5e;fill-opacity:1;stroke:none;stroke-width:0.34288207"
       d="m 13.296561,272.58802 c -0.06697,0 -0.08706,-0.0536 -0.08706,-0.10046 0,-0.0134 0,-0.0335 0.0067,-0.0603 l 0.850509,-5.31065 c 0,-0.0134 0.0067,-0.0335 0.02009,-0.0335 0.0067,0 0.0067,0.0134 0.01339,0.0402 l 0.776842,5.32404 c 0.01339,0.007 0.01339,0.0268 0.01339,0.0469 0,0.0469 -0.01339,0.0938 -0.03348,0.0938 z m -1.419746,2.91985 h 0.649601 c 0.100454,0 0.160726,-0.0469 0.207605,-0.30136 l 0.308058,-1.79477 c 0.01339,-0.0603 0.02679,-0.12055 0.05358,-0.12055 h 1.834955 c 0.03348,0 0.04688,0.0536 0.06027,0.11385 l 0.274573,1.80147 c 0.04018,0.26118 0.140636,0.30136 0.227695,0.30136 h 0.830418 c 0.06697,0 0.107151,-0.0469 0.107151,-0.19421 0,-0.0603 -0.02679,-0.13394 -0.03348,-0.2076 l -1.5202,-8.88011 c -0.04688,-0.27457 -0.133938,-0.34824 -0.241089,-0.34824 h -1.038021 c -0.107151,0 -0.187514,0.0737 -0.241089,0.34824 l -1.573775,8.88011 c -0.0067,0.0402 -0.0067,0.0737 -0.0067,0.10715 v 0.0938 c 0,0.15403 0.04018,0.2009 0.100453,0.2009 z" />
    <path
       inkscape:connector-curvature="0"
       id="path4786"
       style="font-style:normal;font-variant:normal;font-weight:normal;font-stretch:normal;font-size:13.71528149px;line-height:1.25;font-family:BenchNine;-inkscape-font-specification:BenchNine;letter-spacing:0px;word-spacing:0px;fill:#756a5e;fill-opacity:1;stroke:none;stroke-width:0.34288207"
       d="m 17.843767,275.50787 h 0.582631 c 0.100454,0 0.160726,-0.10045 0.160726,-0.38842 v -8.81983 c 0,-0.28797 -0.06027,-0.42191 -0.160726,-0.42191 h -0.582631 c -0.100454,0 -0.167423,0.13394 -0.167423,0.42191 v 8.81983 c 0,0.28797 0.06697,0.38842 0.167423,0.38842 z" />
    <path
       inkscape:connector-curvature="0"
       id="path4788"
       style="font-style:normal;font-variant:normal;font-weight:normal;font-stretch:normal;font-size:13.71528149px;line-height:1.25;font-family:BenchNine;-inkscape-font-specification:BenchNine;letter-spacing:0px;word-spacing:0px;fill:#e1c846;fill-opacity:1;stroke:none;stroke-width:0.34288207"
       d="m 21.640918,272.54784 c -0.649601,0 -0.97775,-0.59603 -0.97775,-1.60726 0,-0.8639 0.234392,-1.61396 0.883993,-1.61396 0.656297,0 0.964355,0.77684 0.964355,1.68762 0,0.89069 -0.19421,1.5336 -0.870598,1.5336 z m -0.09376,4.35969 c -0.696479,0 -0.850508,-0.34154 -0.850508,-0.72996 0,-0.59603 0.354936,-1.28581 0.502268,-1.28581 h 0.770145 c 0.502269,0 0.930872,0.19421 0.930872,0.85051 0,0.75675 -0.408512,1.16526 -1.352777,1.16526 z m -0.04018,0.60942 c 1.06481,0 2.176498,-0.40182 2.176498,-1.83496 0,-0.90408 -0.468784,-1.38626 -1.727804,-1.38626 h -0.750055 c -0.45539,0 -0.683085,-0.22769 -0.683085,-0.56254 0,-0.37503 0.180817,-0.6496 0.321452,-0.76345 0.200907,0.12055 0.529056,0.2143 0.82372,0.2143 1.232233,0 1.721107,-0.8505 1.721107,-2.20328 0,-0.99114 -0.421905,-1.61396 -0.810326,-1.90192 -0.08036,-0.0536 -0.127242,-0.10046 -0.09376,-0.24779 l 0.448693,-1.88183 c 0.02679,-0.11385 -0.01339,-0.27458 -0.08036,-0.27458 h -0.448693 c -0.107151,0 -0.187514,0.0134 -0.200908,0.28797 l -0.113847,1.69432 c -0.0067,0.10715 -0.04018,0.12054 -0.113848,0.10045 -0.113847,-0.0268 -0.261179,-0.067 -0.448693,-0.067 -1.292505,0 -1.814864,1.00454 -1.814864,2.29705 0,0.67638 0.254483,1.23893 0.522359,1.57377 0.02679,0.0268 0.04018,0.067 0.04018,0.10715 0,0.0335 -0.01339,0.0737 -0.04688,0.12055 -0.234392,0.30136 -0.468784,0.54914 -0.468784,1.21214 0,0.4286 0.234392,0.56924 0.602722,0.72326 0.03348,0.0201 0.04688,0.0469 0.04688,0.0871 0,0.0335 -0.01339,0.067 -0.02679,0.0938 -0.334846,0.52236 -0.549147,1.05811 -0.549147,1.48672 0,0.68978 0.56254,1.12508 1.674228,1.12508 z" />
    <path
       inkscape:connector-curvature="0"
       id="path4790"
       style="font-style:normal;font-variant:normal;font-weight:normal;font-stretch:normal;font-size:13.71528149px;line-height:1.25;font-family:BenchNine;-inkscape-font-specification:BenchNine;letter-spacing:0px;word-spacing:0px;fill:#e1c846;fill-opacity:1;stroke:none;stroke-width:0.34288207"
       d="m 26.295273,275.58154 c 0.850508,0 1.922015,-0.31476 1.922015,-3.45561 0,-3.15425 -1.06481,-3.43552 -1.922015,-3.43552 -0.863902,0 -1.942105,0.28127 -1.942105,3.43552 0,3.14085 1.078203,3.45561 1.942105,3.45561 z m -0.0067,-0.75675 c -0.562541,0 -0.964356,-0.36833 -0.964356,-2.69886 0,-2.34392 0.421906,-2.67876 0.964356,-2.67876 0.535753,0 0.964356,0.32814 0.964356,2.67876 0,2.33722 -0.415209,2.69886 -0.964356,2.69886 z" />
    <path
       inkscape:connector-curvature="0"
       id="path4792"
       style="font-style:normal;font-variant:normal;font-weight:normal;font-stretch:normal;font-size:13.71528149px;line-height:1.25;font-family:BenchNine;-inkscape-font-specification:BenchNine;letter-spacing:0px;word-spacing:0px;fill:#e1c846;fill-opacity:1;stroke:none;stroke-width:0.34288207"
       d="m 29.610247,275.50787 h 0.582631 c 0.09376,0 0.160726,-0.14063 0.160726,-0.4286 v -3.16094 c 0,-0.79694 0.274574,-2.00238 0.783539,-2.10953 0.04018,-0.0134 0.287968,-0.0268 0.287968,-0.0268 0.100454,0 0.133938,-0.0402 0.133938,-0.26118 v -0.48218 c 0,-0.22769 -0.05358,-0.32145 -0.247786,-0.32145 h -0.10715 c -0.395118,0.007 -0.790236,0.50897 -1.038022,1.40635 -0.0067,0.0469 -0.02009,0.11385 -0.04018,0.11385 -0.02009,0 -0.03348,-0.0536 -0.04688,-0.11385 l -0.120545,-0.92417 c -0.04688,-0.30136 -0.08706,-0.4286 -0.19421,-0.4286 h -0.187514 c -0.100453,0 -0.133938,0.22769 -0.133938,0.51566 v 5.79283 c 0,0.28797 0.06697,0.4286 0.167423,0.4286 z" />
    <path
       inkscape:connector-curvature="0"
       id="path4794"
       style="font-style:normal;font-variant:normal;font-weight:normal;font-stretch:normal;font-size:13.71528149px;line-height:1.25;font-family:BenchNine;-inkscape-font-specification:BenchNine;letter-spacing:0px;word-spacing:0px;fill:#e1c846;fill-opacity:1;stroke:none;stroke-width:0.34288207"
       d="m 32.751099,267.69257 h 0.662995 c 0.09376,0 0.154029,-0.0536 0.154029,-0.34154 v -0.69648 c 0,-0.28797 -0.06027,-0.34824 -0.154029,-0.34824 h -0.662995 c -0.100454,0 -0.160726,0.0603 -0.160726,0.34824 v 0.69648 c 0,0.28797 0.06027,0.34154 0.160726,0.34154 z m 0.04018,7.8153 h 0.582631 c 0.100454,0 0.160726,-0.12054 0.160726,-0.40851 v -5.92677 c 0,-0.28797 -0.06027,-0.40181 -0.160726,-0.40181 h -0.582631 c -0.100454,0 -0.167423,0.11384 -0.167423,0.40181 v 5.92677 c 0,0.28797 0.06697,0.40851 0.167423,0.40851 z" />
    <path
       inkscape:connector-curvature="0"
       id="path4796"
       style="font-style:normal;font-variant:normal;font-weight:normal;font-stretch:normal;font-size:13.71528149px;line-height:1.25;font-family:BenchNine;-inkscape-font-specification:BenchNine;letter-spacing:0px;word-spacing:0px;fill:#e1c846;fill-opacity:1;stroke:none;stroke-width:0.34288207"
       d="m 36.816126,275.52127 h 0.62951 c 0.120545,0 0.194211,-0.0469 0.194211,-0.2277 v -0.35493 c 0,-0.16743 -0.09376,-0.20091 -0.180817,-0.20091 h -0.462087 c -0.334846,0 -0.636207,-0.14064 -0.636207,-1.33269 v -3.66991 c 0,-0.11384 0.02679,-0.12054 0.08036,-0.12054 h 0.863902 c 0.100454,0 0.160726,-0.0469 0.160726,-0.29467 v -0.25448 c 0,-0.24778 -0.06027,-0.29466 -0.160726,-0.29466 h -0.863902 c -0.05358,0 -0.08036,-0.0469 -0.08036,-0.18082 v -2.37071 c 0,-0.28796 -0.06027,-0.34154 -0.160726,-0.34154 h -0.468784 c -0.100454,0 -0.160726,0.0603 -0.167423,0.34154 l -0.113847,2.37071 c -0.0067,0.13394 -0.03348,0.18082 -0.07367,0.18082 h -0.428603 c -0.09376,0 -0.160726,0.0469 -0.160726,0.29466 v 0.25448 c 0,0.24779 0.06697,0.29467 0.160726,0.29467 h 0.428603 c 0.04018,0 0.07367,0.007 0.07367,0.12054 v 3.66991 c 0,1.81487 0.602722,2.11623 1.36617,2.11623 z" />
    <path
       inkscape:connector-curvature="0"
       id="path4798"
       style="font-style:normal;font-variant:normal;font-weight:normal;font-stretch:normal;font-size:13.71528149px;line-height:1.25;font-family:BenchNine;-inkscape-font-specification:BenchNine;letter-spacing:0px;word-spacing:0px;fill:#e1c846;fill-opacity:1;stroke:none;stroke-width:0.34288207"
       d="m 38.791716,275.50787 h 0.589328 c 0.09376,0 0.160726,-0.0469 0.160726,-0.33484 v -3.64982 c 0,-1.14517 0.482178,-2.07604 1.051416,-2.07604 0.488874,0 0.729963,0.59602 0.729963,2.00237 v 3.72349 c 0,0.28797 0.06027,0.33484 0.160726,0.33484 h 0.582632 c 0.09376,0 0.167423,-0.0469 0.167423,-0.33484 v -3.56276 c 0,-2.29704 -0.508966,-2.91986 -1.339383,-2.91986 -0.428603,0 -0.984447,0.27458 -1.285808,1.0983 -0.01339,0.0201 -0.02679,0.0335 -0.04018,0.0335 -0.01339,0 -0.02679,-0.0201 -0.02679,-0.0804 v -3.50249 c 0,-0.28796 -0.06697,-0.36163 -0.167423,-0.36163 h -0.582631 c -0.09376,0 -0.160726,0.0737 -0.160726,0.36163 v 8.93369 c 0,0.28797 0.06697,0.33484 0.160726,0.33484 z" />
    <path
       inkscape:connector-curvature="0"
       id="path4800"
       style="font-style:normal;font-variant:normal;font-weight:normal;font-stretch:normal;font-size:13.71528149px;line-height:1.25;font-family:BenchNine;-inkscape-font-specification:BenchNine;letter-spacing:0px;word-spacing:0px;fill:#e1c846;fill-opacity:1;stroke:none;stroke-width:0.34288207"
       d="m 43.673767,275.50787 h 0.575935 c 0.09376,0 0.167423,-0.13393 0.167423,-0.4219 V 271.55 c 0,-1.04472 0.321452,-2.10283 0.930871,-2.10283 0.415209,0 0.656298,0.39511 0.656298,1.88183 v 3.75697 c 0,0.28797 0.06697,0.4219 0.167423,0.4219 h 0.582631 c 0.09376,0 0.160726,-0.13393 0.160726,-0.4219 v -3.58285 c 0,-1.29251 0.4353,-2.05595 0.937568,-2.05595 0.428603,0 0.636207,0.38842 0.636207,1.82156 v 3.81724 c 0,0.28797 0.06027,0.4219 0.160726,0.4219 h 0.582632 c 0.100453,0 0.167422,-0.13393 0.167422,-0.4219 v -3.62303 c 0,-2.33053 -0.56254,-2.77253 -1.352776,-2.77253 -0.462087,0 -1.024628,0.36833 -1.272414,1.34608 -0.01339,0.0402 -0.02009,0.0469 -0.04018,0.0469 -0.01339,0 -0.02009,-0.0134 -0.03348,-0.0469 -0.241089,-1.01123 -0.649601,-1.34608 -1.192051,-1.34608 -0.495572,0 -1.017931,0.30806 -1.285808,1.41975 -0.01339,0.0536 -0.02679,0.0938 -0.04018,0.0938 -0.02679,0 -0.04018,-0.0335 -0.04688,-0.0871 l -0.100453,-0.95766 c -0.03348,-0.30136 -0.100454,-0.38842 -0.200908,-0.38842 h -0.17412 c -0.100453,0 -0.154029,0.18751 -0.154029,0.47548 v 5.83971 c 0,0.28797 0.06697,0.4219 0.167423,0.4219 z" />
    <path
       inkscape:connector-curvature="0"
       id="path4802"
       style="font-style:normal;font-variant:normal;font-weight:normal;font-stretch:normal;font-size:13.71528149px;line-height:1.25;font-family:BenchNine;-inkscape-font-specification:BenchNine;letter-spacing:0px;word-spacing:0px;fill:#e1c846;fill-opacity:1;stroke:none;stroke-width:0.34288207"
       d="m 53.578504,273.79346 c 0,-1.17865 -0.642904,-1.70771 -1.359474,-2.1564 -0.535753,-0.33485 -0.857205,-0.6563 -0.857205,-1.25233 0,-0.48217 0.254483,-0.91078 0.736661,-0.91078 0.388421,0 0.723267,0.16073 1.017931,0.47548 0.0067,0.007 0.01339,0.007 0.02009,0.007 0.08706,0 0.314755,-0.37503 0.314755,-0.55584 0,-0.0335 -0.0067,-0.0603 -0.02679,-0.0804 -0.36833,-0.38842 -0.830417,-0.62951 -1.386261,-0.62951 -0.910781,0 -1.513503,0.74336 -1.513503,1.7546 0,1.10499 0.555844,1.55368 1.25902,2.02916 0.596025,0.39512 0.964356,0.68978 0.964356,1.3059 0,0.54245 -0.274574,1.04472 -0.870599,1.04472 -0.468784,0 -0.810327,-0.20091 -1.185354,-0.63621 -0.0067,-0.007 -0.02009,-0.0134 -0.03349,-0.0134 -0.113847,0 -0.381724,0.39512 -0.381724,0.55584 0,0.0201 0.0067,0.0335 0.01339,0.0469 0.428602,0.51566 0.977749,0.80363 1.613956,0.80363 1.06481,0 1.674229,-0.70987 1.674229,-1.78808 z" />
    <path
       inkscape:connector-curvature="0"
       id="path4804"
       style="font-style:normal;font-variant:normal;font-weight:normal;font-stretch:normal;font-size:13.71528149px;line-height:1.25;font-family:BenchNine;-inkscape-font-specification:BenchNine;letter-spacing:0px;word-spacing:0px;fill:#e1c846;fill-opacity:1;stroke:none;stroke-width:0.34288207"
       d="m 56.846597,275.50787 h 0.569238 c 0.09376,0 0.167423,-0.15403 0.167423,-0.44199 v -5.27047 c 0,-0.13394 0.01339,-0.18752 0.06027,-0.18752 h 0.904083 c 0.100454,0 0.147332,-0.0402 0.147332,-0.24109 v -0.36163 c 0,-0.19421 -0.04688,-0.23439 -0.147332,-0.23439 h -0.944265 c -0.0067,0 -0.02009,-0.0201 -0.02009,-0.0402 v -0.56924 c 0,-1.20545 0.154029,-1.5202 0.683085,-1.5202 h 0.388421 c 0.08706,0 0.08706,-0.0402 0.08706,-0.26788 v -0.33484 c 0,-0.18752 -0.07367,-0.20091 -0.140635,-0.21431 -0.06697,-0.0134 -0.408512,-0.0268 -0.542451,-0.0268 -0.957658,0 -1.386261,0.45539 -1.386261,2.75243 0,0.14733 0,0.221 -0.04688,0.221 h -0.341543 c -0.100454,0 -0.160726,0.0603 -0.160726,0.26118 v 0.33484 c 0,0.20761 0.06027,0.24109 0.160726,0.24109 h 0.341543 c 0.04688,0 0.04688,0.0536 0.04688,0.18752 v 5.27047 c 0,0.28796 0.08036,0.44199 0.17412,0.44199 z" />
    <path
       inkscape:connector-curvature="0"
       id="path4807"
       style="font-style:normal;font-variant:normal;font-weight:normal;font-stretch:normal;font-size:13.71528149px;line-height:1.25;font-family:BenchNine;-inkscape-font-specification:BenchNine;letter-spacing:0px;word-spacing:0px;fill:#e1c846;fill-opacity:1;stroke:none;stroke-width:0.34288207"
       d="m 61.333532,275.58154 c 0.850508,0 1.922014,-0.31476 1.922014,-3.45561 0,-3.15425 -1.064809,-3.43552 -1.922014,-3.43552 -0.863902,0 -1.942106,0.28127 -1.942106,3.43552 0,3.14085 1.078204,3.45561 1.942106,3.45561 z m -0.0067,-0.75675 c -0.562541,0 -0.964356,-0.36833 -0.964356,-2.69886 0,-2.34392 0.421906,-2.67876 0.964356,-2.67876 0.535753,0 0.964355,0.32814 0.964355,2.67876 0,2.33722 -0.415208,2.69886 -0.964355,2.69886 z" />
    <path
       inkscape:connector-curvature="0"
       id="path4809"
       style="font-style:normal;font-variant:normal;font-weight:normal;font-stretch:normal;font-size:13.71528149px;line-height:1.25;font-family:BenchNine;-inkscape-font-specification:BenchNine;letter-spacing:0px;word-spacing:0px;fill:#e1c846;fill-opacity:1;stroke:none;stroke-width:0.34288207"
       d="m 64.648506,275.50787 h 0.582632 c 0.09376,0 0.160726,-0.14063 0.160726,-0.4286 v -3.16094 c 0,-0.79694 0.274573,-2.00238 0.783539,-2.10953 0.04018,-0.0134 0.287967,-0.0268 0.287967,-0.0268 0.100454,0 0.133939,-0.0402 0.133939,-0.26118 v -0.48218 c 0,-0.22769 -0.05358,-0.32145 -0.247786,-0.32145 h -0.107151 c -0.395118,0.007 -0.790236,0.50897 -1.038022,1.40635 -0.0067,0.0469 -0.02009,0.11385 -0.04018,0.11385 -0.02009,0 -0.03348,-0.0536 -0.04688,-0.11385 l -0.120544,-0.92417 c -0.04688,-0.30136 -0.08706,-0.4286 -0.194211,-0.4286 h -0.187513 c -0.100454,0 -0.133938,0.22769 -0.133938,0.51566 v 5.79283 c 0,0.28797 0.06697,0.4286 0.167422,0.4286 z" />
    <path
       inkscape:connector-curvature="0"
       id="path4811"
       style="font-style:normal;font-variant:normal;font-weight:normal;font-stretch:normal;font-size:13.71528149px;line-height:1.25;font-family:BenchNine;-inkscape-font-specification:BenchNine;letter-spacing:0px;word-spacing:0px;fill:#756a5e;fill-opacity:1;stroke:none;stroke-width:0.34288207"
       d="m 70.722608,271.17497 c -0.03348,0 -0.05358,-0.0268 -0.05358,-0.10715 v -4.21906 c 0,-0.0804 0.02679,-0.11384 0.06027,-0.11384 h 0.763448 c 0.857205,0 1.466624,0.11384 1.466624,2.25686 0,1.9354 -0.361633,2.18319 -1.319292,2.18319 z m -0.971053,4.3329 h 0.750054 c 0.100454,0 0.167423,-0.067 0.167423,-0.32815 v -3.027 c 0,-0.0938 0.02679,-0.11385 0.06027,-0.11385 h 1.024627 c 1.178657,0 2.283648,-0.28127 2.283648,-3.05379 0,-2.92655 -1.245626,-3.10737 -2.497949,-3.10737 h -1.788076 c -0.09376,0 -0.160726,0.0268 -0.160726,0.30806 v 8.99395 c 0,0.26788 0.06697,0.32815 0.160726,0.32815 z" />
    <path
       inkscape:connector-curvature="0"
       id="path4813"
       style="font-style:normal;font-variant:normal;font-weight:normal;font-stretch:normal;font-size:13.71528149px;line-height:1.25;font-family:BenchNine;-inkscape-font-specification:BenchNine;letter-spacing:0px;word-spacing:0px;fill:#756a5e;fill-opacity:1;stroke:none;stroke-width:0.34288207"
       d="m 76.401592,274.87167 c -0.529057,0 -0.723267,-0.39512 -0.723267,-1.03133 0,-0.8706 0.388421,-1.50011 1.513502,-1.75459 0.02009,-0.007 0.287968,-0.0469 0.294665,-0.0469 0.04688,0 0.04688,0.37503 0.04688,0.46879 0,1.25902 -0.395118,2.36401 -1.131778,2.36401 z m -0.180817,0.71657 c 0.843811,0 1.252323,-0.52236 1.459927,-1.33939 0.01339,-0.0469 0.04688,-0.0402 0.05358,0 0.01339,0.18752 0.167422,0.81703 0.207604,0.98445 0.04688,0.18082 0.107151,0.27457 0.180817,0.27457 h 0.160726 c 0.08706,0 0.140635,-0.0937 0.140635,-0.32815 v -3.83063 c 0,-1.96889 -0.582632,-2.65868 -1.674229,-2.65868 -1.071506,0 -1.513503,0.52906 -1.741198,1.33269 -0.03348,0.12724 -0.04688,0.32145 -0.0067,0.36163 0.01339,0.0536 0.495572,0.18752 0.562541,0.20091 0.07367,0.0201 0.127242,-0.0201 0.180817,-0.18082 0.17412,-0.57593 0.361633,-0.95765 0.957659,-0.95765 0.669691,0 0.810326,0.65629 0.810326,1.58716 v 0.36833 c -0.247785,0.19422 -2.672069,0.007 -2.672069,2.51135 0,1.06481 0.468784,1.67423 1.379565,1.67423 z" />
    <path
       inkscape:connector-curvature="0"
       id="path4815"
       style="font-style:normal;font-variant:normal;font-weight:normal;font-stretch:normal;font-size:13.71528149px;line-height:1.25;font-family:BenchNine;-inkscape-font-specification:BenchNine;letter-spacing:0px;word-spacing:0px;fill:#e1c846;fill-opacity:1;stroke:none;stroke-width:0.34288207"
       d="m 79.890682,275.50787 h 0.582632 c 0.09376,0 0.160726,-0.0469 0.160726,-0.33484 v -3.77037 c 0,-1.0648 0.448693,-1.95549 1.051416,-1.95549 0.45539,0 0.662994,0.56923 0.662994,1.88183 v 3.84403 c 0,0.28797 0.06027,0.33484 0.160726,0.33484 h 0.589329 c 0.09376,0 0.160726,-0.0469 0.160726,-0.33484 v -3.7034 c 0,-2.18989 -0.502269,-2.77922 -1.379565,-2.77922 -0.515662,0 -1.138475,0.18082 -1.446533,1.28581 -0.0067,0.0402 -0.02009,0.0737 -0.04018,0.0737 -0.02009,0 -0.03348,-0.0268 -0.04688,-0.0737 l -0.107151,-0.87729 c -0.04688,-0.30137 -0.120544,-0.32815 -0.227695,-0.32815 h -0.127241 c -0.100454,0 -0.160726,0.12724 -0.160726,0.41521 v 5.98704 c 0,0.28797 0.07367,0.33484 0.167422,0.33484 z" />
    <path
       inkscape:connector-curvature="0"
       id="path4817"
       style="font-style:normal;font-variant:normal;font-weight:normal;font-stretch:normal;font-size:13.71528149px;line-height:1.25;font-family:BenchNine;-inkscape-font-specification:BenchNine;letter-spacing:0px;word-spacing:0px;fill:#e1c846;fill-opacity:1;stroke:none;stroke-width:0.34288207"
       d="m 84.64549,272.13933 h 1.647441 c 0.100454,0 0.167423,-0.0603 0.167423,-0.34824 v -0.52236 c 0,-0.28797 -0.06697,-0.35494 -0.167423,-0.35494 H 84.64549 c -0.100454,0 -0.167423,0.067 -0.167423,0.35494 v 0.52236 c 0,0.28796 0.06697,0.34824 0.167423,0.34824 z" />
    <path
       inkscape:connector-curvature="0"
       id="path4819"
       style="font-style:normal;font-variant:normal;font-weight:normal;font-stretch:normal;font-size:13.71528149px;line-height:1.25;font-family:BenchNine;-inkscape-font-specification:BenchNine;letter-spacing:0px;word-spacing:0px;fill:#e1c846;fill-opacity:1;stroke:none;stroke-width:0.34288207"
       d="m 89.467274,272.54784 c -0.649601,0 -0.97775,-0.59603 -0.97775,-1.60726 0,-0.8639 0.234392,-1.61396 0.883993,-1.61396 0.656297,0 0.964355,0.77684 0.964355,1.68762 0,0.89069 -0.19421,1.5336 -0.870598,1.5336 z m -0.09376,4.35969 c -0.696479,0 -0.850508,-0.34154 -0.850508,-0.72996 0,-0.59603 0.354936,-1.28581 0.502268,-1.28581 h 0.770145 c 0.502269,0 0.930871,0.19421 0.930871,0.85051 0,0.75675 -0.408511,1.16526 -1.352776,1.16526 z m -0.04018,0.60942 c 1.06481,0 2.176498,-0.40182 2.176498,-1.83496 0,-0.90408 -0.468785,-1.38626 -1.727804,-1.38626 h -0.750055 c -0.45539,0 -0.683085,-0.22769 -0.683085,-0.56254 0,-0.37503 0.180816,-0.6496 0.321452,-0.76345 0.200907,0.12055 0.529056,0.2143 0.82372,0.2143 1.232232,0 1.721107,-0.8505 1.721107,-2.20328 0,-0.99114 -0.421905,-1.61396 -0.810326,-1.90192 -0.08036,-0.0536 -0.127242,-0.10046 -0.09376,-0.24779 l 0.448693,-1.88183 c 0.02679,-0.11385 -0.01339,-0.27458 -0.08036,-0.27458 h -0.448693 c -0.107151,0 -0.187514,0.0134 -0.200908,0.28797 l -0.113847,1.69432 c -0.0067,0.10715 -0.04018,0.12054 -0.113848,0.10045 -0.113847,-0.0268 -0.261179,-0.067 -0.448693,-0.067 -1.292505,0 -1.814864,1.00454 -1.814864,2.29705 0,0.67638 0.254483,1.23893 0.522359,1.57377 0.02679,0.0268 0.04018,0.067 0.04018,0.10715 0,0.0335 -0.01339,0.0737 -0.04688,0.12055 -0.234392,0.30136 -0.468784,0.54914 -0.468784,1.21214 0,0.4286 0.234392,0.56924 0.602723,0.72326 0.03348,0.0201 0.04688,0.0469 0.04688,0.0871 0,0.0335 -0.01339,0.067 -0.02679,0.0938 -0.334846,0.52236 -0.549147,1.05811 -0.549147,1.48672 0,0.68978 0.56254,1.12508 1.674228,1.12508 z" />
    <path
       inkscape:connector-curvature="0"
       id="path4821"
       style="font-style:normal;font-variant:normal;font-weight:normal;font-stretch:normal;font-size:13.71528149px;line-height:1.25;font-family:BenchNine;-inkscape-font-specification:BenchNine;letter-spacing:0px;word-spacing:0px;fill:#e1c846;fill-opacity:1;stroke:none;stroke-width:0.34288207"
       d="m 93.157273,271.74421 c -0.02009,0 -0.02009,-0.30136 -0.02009,-0.36164 0.08706,-1.5135 0.482178,-1.9421 0.924175,-1.9421 0.596025,0 0.837114,0.70987 0.890689,2.18319 0,0.0402 0,0.12055 -0.01339,0.12055 z m 2.538131,2.11622 v -0.13394 c 0,-0.14733 -0.01339,-0.27457 -0.127242,-0.27457 h -0.45539 c -0.04688,0 -0.08036,0.0536 -0.08706,0.13394 -0.04688,0.46878 -0.133938,1.23893 -0.843811,1.23893 -0.756751,0 -1.051415,-1.0849 -1.051415,-2.34392 0,-0.0737 0.02009,-0.14064 0.04688,-0.14064 h 2.370708 c 0.180816,0 0.200907,-0.28796 0.200907,-0.48218 0,-2.41758 -0.709873,-3.17433 -1.674229,-3.17433 -0.870598,0 -1.895226,0.49557 -1.895226,3.44891 0,2.87297 1.011234,3.44891 1.962196,3.44891 1.078203,0 1.553684,-0.79693 1.553684,-1.72111 z" />
    <path
       inkscape:connector-curvature="0"
       id="path4823"
       style="font-style:normal;font-variant:normal;font-weight:normal;font-stretch:normal;font-size:13.71528149px;line-height:1.25;font-family:BenchNine;-inkscape-font-specification:BenchNine;letter-spacing:0px;word-spacing:0px;fill:#e1c846;fill-opacity:1;stroke:none;stroke-width:0.34288207"
       d="m 97.195515,275.50787 h 0.582631 c 0.09376,0 0.160726,-0.0469 0.160726,-0.33484 v -3.77037 c 0,-1.0648 0.448694,-1.95549 1.051416,-1.95549 0.45539,0 0.662995,0.56923 0.662995,1.88183 v 3.84403 c 0,0.28797 0.06027,0.33484 0.160726,0.33484 h 0.589331 c 0.0937,0 0.16072,-0.0469 0.16072,-0.33484 v -3.7034 c 0,-2.18989 -0.50227,-2.77922 -1.379561,-2.77922 -0.515663,0 -1.138476,0.18082 -1.446534,1.28581 -0.0067,0.0402 -0.02009,0.0737 -0.04018,0.0737 -0.02009,0 -0.03348,-0.0268 -0.04688,-0.0737 l -0.107151,-0.87729 c -0.04688,-0.30137 -0.120544,-0.32815 -0.227695,-0.32815 h -0.127241 c -0.100454,0 -0.160726,0.12724 -0.160726,0.41521 v 5.98704 c 0,0.28797 0.07367,0.33484 0.167423,0.33484 z" />
    <path
       inkscape:connector-curvature="0"
       id="path4826"
       style="font-style:normal;font-variant:normal;font-weight:normal;font-stretch:normal;font-size:13.71528149px;line-height:1.25;font-family:BenchNine;-inkscape-font-specification:BenchNine;letter-spacing:0px;word-spacing:0px;fill:#e1c846;fill-opacity:1;stroke:none;stroke-width:0.34288207"
       d="m 103.68482,275.58154 c 0.85051,0 1.92202,-0.31476 1.92202,-3.45561 0,-3.15425 -1.06481,-3.43552 -1.92202,-3.43552 -0.8639,0 -1.9421,0.28127 -1.9421,3.43552 0,3.14085 1.0782,3.45561 1.9421,3.45561 z m -0.007,-0.75675 c -0.56254,0 -0.96436,-0.36833 -0.96436,-2.69886 0,-2.34392 0.42191,-2.67876 0.96436,-2.67876 0.53575,0 0.96435,0.32814 0.96435,2.67876 0,2.33722 -0.41521,2.69886 -0.96435,2.69886 z" />
    <path
       inkscape:connector-curvature="0"
       id="path4828"
       style="font-style:normal;font-variant:normal;font-weight:normal;font-stretch:normal;font-size:13.71528149px;line-height:1.25;font-family:BenchNine;-inkscape-font-specification:BenchNine;letter-spacing:0px;word-spacing:0px;fill:#e1c846;fill-opacity:1;stroke:none;stroke-width:0.34288207"
       d="m 106.9998,275.50787 h 0.57593 c 0.0938,0 0.16743,-0.13393 0.16743,-0.4219 V 271.55 c 0,-1.04472 0.32145,-2.10283 0.93087,-2.10283 0.41521,0 0.65629,0.39511 0.65629,1.88183 v 3.75697 c 0,0.28797 0.067,0.4219 0.16743,0.4219 h 0.58263 c 0.0938,0 0.16072,-0.13393 0.16072,-0.4219 v -3.58285 c 0,-1.29251 0.4353,-2.05595 0.93757,-2.05595 0.42861,0 0.63621,0.38842 0.63621,1.82156 v 3.81724 c 0,0.28797 0.0603,0.4219 0.16073,0.4219 h 0.58263 c 0.10045,0 0.16742,-0.13393 0.16742,-0.4219 v -3.62303 c 0,-2.33053 -0.56254,-2.77253 -1.35278,-2.77253 -0.46208,0 -1.02462,0.36833 -1.27241,1.34608 -0.0134,0.0402 -0.0201,0.0469 -0.0402,0.0469 -0.0134,0 -0.0201,-0.0134 -0.0335,-0.0469 -0.24109,-1.01123 -0.6496,-1.34608 -1.19205,-1.34608 -0.49557,0 -1.01793,0.30806 -1.2858,1.41975 -0.0134,0.0536 -0.0268,0.0938 -0.0402,0.0938 -0.0268,0 -0.0402,-0.0335 -0.0469,-0.0871 l -0.10046,-0.95766 c -0.0335,-0.30136 -0.10045,-0.38842 -0.20091,-0.38842 h -0.17412 c -0.10045,0 -0.15402,0.18751 -0.15402,0.47548 v 5.83971 c 0,0.28797 0.067,0.4219 0.16742,0.4219 z" />
    <path
       inkscape:connector-curvature="0"
       id="path4830"
       style="font-style:normal;font-variant:normal;font-weight:normal;font-stretch:normal;font-size:13.71528149px;line-height:1.25;font-family:BenchNine;-inkscape-font-specification:BenchNine;letter-spacing:0px;word-spacing:0px;fill:#e1c846;fill-opacity:1;stroke:none;stroke-width:0.34288207"
       d="m 114.85528,271.74421 c -0.0201,0 -0.0201,-0.30136 -0.0201,-0.36164 0.0871,-1.5135 0.48218,-1.9421 0.92417,-1.9421 0.59603,0 0.83712,0.70987 0.89069,2.18319 0,0.0402 0,0.12055 -0.0134,0.12055 z m 2.53813,2.11622 v -0.13394 c 0,-0.14733 -0.0134,-0.27457 -0.12724,-0.27457 h -0.45539 c -0.0469,0 -0.0804,0.0536 -0.0871,0.13394 -0.0469,0.46878 -0.13394,1.23893 -0.84381,1.23893 -0.75675,0 -1.05142,-1.0849 -1.05142,-2.34392 0,-0.0737 0.0201,-0.14064 0.0469,-0.14064 h 2.37071 c 0.18081,0 0.2009,-0.28796 0.2009,-0.48218 0,-2.41758 -0.70987,-3.17433 -1.67422,-3.17433 -0.8706,0 -1.89523,0.49557 -1.89523,3.44891 0,2.87297 1.01123,3.44891 1.9622,3.44891 1.0782,0 1.55368,-0.79693 1.55368,-1.72111 z" />
    <path
       inkscape:connector-curvature="0"
       id="path4832"
       style="font-style:normal;font-variant:normal;font-weight:normal;font-stretch:normal;font-size:13.71528149px;line-height:1.25;font-family:BenchNine;-inkscape-font-specification:BenchNine;letter-spacing:0px;word-spacing:0px;fill:#756a5e;fill-opacity:1;stroke:none;stroke-width:0.34288207"
       d="m 123.13266,275.60163 c 0.30806,0 0.70318,-0.0402 0.97105,-0.14063 0.0134,-0.007 0.0536,-0.10046 0.0536,-0.12055 v -0.62951 c 0,-0.0201 -0.0402,-0.11385 -0.0536,-0.11385 -0.22769,0.0804 -0.54245,0.12724 -0.85051,0.12724 -0.96435,0 -1.63404,-0.4219 -1.63404,-4.03824 0,-3.58284 0.80363,-4.02484 1.7412,-4.02484 0.44199,0 0.81702,0.14063 0.83711,0.14063 0.0268,0 0.0469,-0.007 0.0469,-0.0804 v -0.6496 c 0,-0.0871 -0.0536,-0.0938 -0.0737,-0.12054 -0.2076,-0.0938 -0.60272,-0.17412 -0.99114,-0.17412 -1.33938,0 -2.63859,0.47548 -2.63859,4.90883 0,4.574 1.27912,4.91554 2.59171,4.91554 z" />
    <path
       inkscape:connector-curvature="0"
       id="path4834"
       style="font-style:normal;font-variant:normal;font-weight:normal;font-stretch:normal;font-size:13.71528149px;line-height:1.25;font-family:BenchNine;-inkscape-font-specification:BenchNine;letter-spacing:0px;word-spacing:0px;fill:#e1c846;fill-opacity:1;stroke:none;stroke-width:0.34288207"
       d="m 127.12402,275.58154 c 0.85051,0 1.92202,-0.31476 1.92202,-3.45561 0,-3.15425 -1.06481,-3.43552 -1.92202,-3.43552 -0.8639,0 -1.9421,0.28127 -1.9421,3.43552 0,3.14085 1.0782,3.45561 1.9421,3.45561 z m -0.007,-0.75675 c -0.56254,0 -0.96436,-0.36833 -0.96436,-2.69886 0,-2.34392 0.42191,-2.67876 0.96436,-2.67876 0.53575,0 0.96435,0.32814 0.96435,2.67876 0,2.33722 -0.41521,2.69886 -0.96435,2.69886 z" />
    <path
       inkscape:connector-curvature="0"
       id="path4836"
       style="font-style:normal;font-variant:normal;font-weight:normal;font-stretch:normal;font-size:13.71528149px;line-height:1.25;font-family:BenchNine;-inkscape-font-specification:BenchNine;letter-spacing:0px;word-spacing:0px;fill:#e1c846;fill-opacity:1;stroke:none;stroke-width:0.34288207"
       d="m 130.439,275.50787 h 0.57593 c 0.0938,0 0.16743,-0.13393 0.16743,-0.4219 V 271.55 c 0,-1.04472 0.32145,-2.10283 0.93087,-2.10283 0.41521,0 0.6563,0.39511 0.6563,1.88183 v 3.75697 c 0,0.28797 0.067,0.4219 0.16742,0.4219 h 0.58263 c 0.0938,0 0.16073,-0.13393 0.16073,-0.4219 v -3.58285 c 0,-1.29251 0.4353,-2.05595 0.93756,-2.05595 0.42861,0 0.63621,0.38842 0.63621,1.82156 v 3.81724 c 0,0.28797 0.0603,0.4219 0.16073,0.4219 h 0.58263 c 0.10045,0 0.16742,-0.13393 0.16742,-0.4219 v -3.62303 c 0,-2.33053 -0.56254,-2.77253 -1.35278,-2.77253 -0.46208,0 -1.02462,0.36833 -1.27241,1.34608 -0.0134,0.0402 -0.0201,0.0469 -0.0402,0.0469 -0.0134,0 -0.0201,-0.0134 -0.0335,-0.0469 -0.24108,-1.01123 -0.6496,-1.34608 -1.19205,-1.34608 -0.49557,0 -1.01793,0.30806 -1.2858,1.41975 -0.0134,0.0536 -0.0268,0.0938 -0.0402,0.0938 -0.0268,0 -0.0402,-0.0335 -0.0469,-0.0871 l -0.10046,-0.95766 c -0.0335,-0.30136 -0.10045,-0.38842 -0.2009,-0.38842 h -0.17412 c -0.10046,0 -0.15403,0.18751 -0.15403,0.47548 v 5.83971 c 0,0.28797 0.067,0.4219 0.16742,0.4219 z" />
    <path
       inkscape:connector-curvature="0"
       id="path4838"
       style="font-style:normal;font-variant:normal;font-weight:normal;font-stretch:normal;font-size:13.71528149px;line-height:1.25;font-family:BenchNine;-inkscape-font-specification:BenchNine;letter-spacing:0px;word-spacing:0px;fill:#e1c846;fill-opacity:1;stroke:none;stroke-width:0.34288207"
       d="m 139.3459,274.82479 c -0.54915,0 -0.98445,-0.95766 -0.98445,-2.67877 0,-1.62735 0.40851,-2.69885 0.98445,-2.69885 0.54245,0 0.95096,0.97105 0.95096,2.69885 0,2.01577 -0.4286,2.67877 -0.95096,2.67877 z m -1.7412,3.15425 h 0.59602 c 0.0938,0 0.16073,-0.16073 0.16073,-0.4487 v -2.99352 c 0,-0.0536 0.0134,-0.0737 0.0268,-0.0737 0.0134,0 0.0335,0.0134 0.0402,0.0335 0.24109,0.72996 0.68308,1.0849 1.13847,1.0849 0.92418,0 1.69432,-0.91748 1.69432,-3.4824 0,-2.43098 -0.84381,-3.40873 -1.70101,-3.40873 -0.52236,0 -1.13848,0.42191 -1.41305,1.50681 -0.0134,0.0402 -0.0201,0.0536 -0.0402,0.0536 -0.007,0 -0.0268,-0.0268 -0.0335,-0.0737 0,-0.12055 -0.10715,-0.78354 -0.12724,-0.92417 -0.0536,-0.38173 -0.14063,-0.49558 -0.221,-0.49558 h -0.13394 c -0.0937,0 -0.14063,0.15403 -0.14063,0.442 v 8.33096 c 0,0.28797 0.0536,0.4487 0.15403,0.4487 z" />
    <path
       inkscape:connector-curvature="0"
       id="path4840"
       style="font-style:normal;font-variant:normal;font-weight:normal;font-stretch:normal;font-size:13.71528149px;line-height:1.25;font-family:BenchNine;-inkscape-font-specification:BenchNine;letter-spacing:0px;word-spacing:0px;fill:#e1c846;fill-opacity:1;stroke:none;stroke-width:0.34288207"
       d="m 144.1074,275.58154 c 0.52236,0 1.11169,-0.31476 1.35948,-1.34608 0.0134,-0.0469 0.0268,-0.0938 0.0402,-0.0938 0.0201,0 0.0402,0.0335 0.0469,0.0871 l 0.12054,0.94427 c 0.0469,0.30806 0.12054,0.33484 0.22769,0.33484 h 0.13394 c 0.10046,0 0.15403,-0.13393 0.15403,-0.4219 v -5.98035 c 0,-0.28796 -0.067,-0.33484 -0.16742,-0.33484 h -0.57594 c -0.10045,0 -0.16742,0.0469 -0.16742,0.33484 v 3.85073 c 0,0.89069 -0.40181,1.86844 -1.00454,1.86844 -0.44869,0 -0.72996,-0.34824 -0.72996,-1.57378 v -4.14539 c 0,-0.28796 -0.067,-0.33484 -0.16742,-0.33484 h -0.58263 c -0.0938,0 -0.16073,0.0469 -0.16073,0.33484 v 3.9043 c 0,2.15641 0.6496,2.57162 1.47332,2.57162 z" />
    <path
       inkscape:connector-curvature="0"
       id="path4842"
       style="font-style:normal;font-variant:normal;font-weight:normal;font-stretch:normal;font-size:13.71528149px;line-height:1.25;font-family:BenchNine;-inkscape-font-specification:BenchNine;letter-spacing:0px;word-spacing:0px;fill:#e1c846;fill-opacity:1;stroke:none;stroke-width:0.34288207"
       d="m 149.45824,275.52127 h 0.62951 c 0.12054,0 0.19421,-0.0469 0.19421,-0.2277 v -0.35493 c 0,-0.16743 -0.0938,-0.20091 -0.18082,-0.20091 h -0.46209 c -0.33484,0 -0.6362,-0.14064 -0.6362,-1.33269 v -3.66991 c 0,-0.11384 0.0268,-0.12054 0.0804,-0.12054 h 0.8639 c 0.10045,0 0.16073,-0.0469 0.16073,-0.29467 v -0.25448 c 0,-0.24778 -0.0603,-0.29466 -0.16073,-0.29466 h -0.8639 c -0.0536,0 -0.0804,-0.0469 -0.0804,-0.18082 v -2.37071 c 0,-0.28796 -0.0603,-0.34154 -0.16073,-0.34154 h -0.46878 c -0.10046,0 -0.16073,0.0603 -0.16743,0.34154 l -0.11385,2.37071 c -0.007,0.13394 -0.0335,0.18082 -0.0737,0.18082 h -0.4286 c -0.0938,0 -0.16073,0.0469 -0.16073,0.29466 v 0.25448 c 0,0.24779 0.067,0.29467 0.16073,0.29467 h 0.4286 c 0.0402,0 0.0737,0.007 0.0737,0.12054 v 3.66991 c 0,1.81487 0.60273,2.11623 1.36618,2.11623 z" />
    <path
       inkscape:connector-curvature="0"
       id="path4844"
       style="font-style:normal;font-variant:normal;font-weight:normal;font-stretch:normal;font-size:13.71528149px;line-height:1.25;font-family:BenchNine;-inkscape-font-specification:BenchNine;letter-spacing:0px;word-spacing:0px;fill:#e1c846;fill-opacity:1;stroke:none;stroke-width:0.34288207"
       d="m 152.66605,274.87167 c -0.52905,0 -0.72326,-0.39512 -0.72326,-1.03133 0,-0.8706 0.38842,-1.50011 1.5135,-1.75459 0.0201,-0.007 0.28797,-0.0469 0.29466,-0.0469 0.0469,0 0.0469,0.37503 0.0469,0.46879 0,1.25902 -0.39512,2.36401 -1.13178,2.36401 z m -0.18081,0.71657 c 0.84381,0 1.25232,-0.52236 1.45992,-1.33939 0.0134,-0.0469 0.0469,-0.0402 0.0536,0 0.0134,0.18752 0.16742,0.81703 0.2076,0.98445 0.0469,0.18082 0.10715,0.27457 0.18082,0.27457 h 0.16073 c 0.0871,0 0.14063,-0.0937 0.14063,-0.32815 v -3.83063 c 0,-1.96889 -0.58263,-2.65868 -1.67423,-2.65868 -1.0715,0 -1.5135,0.52906 -1.7412,1.33269 -0.0335,0.12724 -0.0469,0.32145 -0.007,0.36163 0.0134,0.0536 0.49557,0.18752 0.56254,0.20091 0.0737,0.0201 0.12724,-0.0201 0.18082,-0.18082 0.17412,-0.57593 0.36163,-0.95765 0.95765,-0.95765 0.6697,0 0.81033,0.65629 0.81033,1.58716 v 0.36833 c -0.24778,0.19422 -2.67207,0.007 -2.67207,2.51135 0,1.06481 0.46879,1.67423 1.37957,1.67423 z" />
    <path
       inkscape:connector-curvature="0"
       id="path4846"
       style="font-style:normal;font-variant:normal;font-weight:normal;font-stretch:normal;font-size:13.71528149px;line-height:1.25;font-family:BenchNine;-inkscape-font-specification:BenchNine;letter-spacing:0px;word-spacing:0px;fill:#e1c846;fill-opacity:1;stroke:none;stroke-width:0.34288207"
       d="m 157.89635,275.52127 h 0.62951 c 0.12054,0 0.19421,-0.0469 0.19421,-0.2277 v -0.35493 c 0,-0.16743 -0.0938,-0.20091 -0.18082,-0.20091 h -0.46209 c -0.33484,0 -0.6362,-0.14064 -0.6362,-1.33269 v -3.66991 c 0,-0.11384 0.0268,-0.12054 0.0804,-0.12054 h 0.8639 c 0.10045,0 0.16073,-0.0469 0.16073,-0.29467 v -0.25448 c 0,-0.24778 -0.0603,-0.29466 -0.16073,-0.29466 h -0.8639 c -0.0536,0 -0.0804,-0.0469 -0.0804,-0.18082 v -2.37071 c 0,-0.28796 -0.0603,-0.34154 -0.16073,-0.34154 h -0.46878 c -0.10046,0 -0.16073,0.0603 -0.16743,0.34154 l -0.11384,2.37071 c -0.007,0.13394 -0.0335,0.18082 -0.0737,0.18082 h -0.4286 c -0.0938,0 -0.16073,0.0469 -0.16073,0.29466 v 0.25448 c 0,0.24779 0.067,0.29467 0.16073,0.29467 h 0.4286 c 0.0402,0 0.0737,0.007 0.0737,0.12054 v 3.66991 c 0,1.81487 0.60272,2.11623 1.36617,2.11623 z" />
    <path
       inkscape:connector-curvature="0"
       id="path4848"
       style="font-style:normal;font-variant:normal;font-weight:normal;font-stretch:normal;font-size:13.71528149px;line-height:1.25;font-family:BenchNine;-inkscape-font-specification:BenchNine;letter-spacing:0px;word-spacing:0px;fill:#e1c846;fill-opacity:1;stroke:none;stroke-width:0.34288207"
       d="m 159.88532,267.69257 h 0.663 c 0.0938,0 0.15403,-0.0536 0.15403,-0.34154 v -0.69648 c 0,-0.28797 -0.0603,-0.34824 -0.15403,-0.34824 h -0.663 c -0.10045,0 -0.16072,0.0603 -0.16072,0.34824 v 0.69648 c 0,0.28797 0.0603,0.34154 0.16072,0.34154 z m 0.0402,7.8153 h 0.58263 c 0.10045,0 0.16072,-0.12054 0.16072,-0.40851 v -5.92677 c 0,-0.28797 -0.0603,-0.40181 -0.16072,-0.40181 h -0.58263 c -0.10046,0 -0.16743,0.11384 -0.16743,0.40181 v 5.92677 c 0,0.28797 0.067,0.40851 0.16743,0.40851 z" />
    <path
       inkscape:connector-curvature="0"
       id="path4851"
       style="font-style:normal;font-variant:normal;font-weight:normal;font-stretch:normal;font-size:13.71528149px;line-height:1.25;font-family:BenchNine;-inkscape-font-specification:BenchNine;letter-spacing:0px;word-spacing:0px;fill:#e1c846;fill-opacity:1;stroke:none;stroke-width:0.34288207"
       d="m 163.84991,275.58154 c 0.85051,0 1.92201,-0.31476 1.92201,-3.45561 0,-3.15425 -1.06481,-3.43552 -1.92201,-3.43552 -0.8639,0 -1.94211,0.28127 -1.94211,3.43552 0,3.14085 1.07821,3.45561 1.94211,3.45561 z m -0.007,-0.75675 c -0.56254,0 -0.96435,-0.36833 -0.96435,-2.69886 0,-2.34392 0.4219,-2.67876 0.96435,-2.67876 0.53575,0 0.96436,0.32814 0.96436,2.67876 0,2.33722 -0.41521,2.69886 -0.96436,2.69886 z" />
    <path
       inkscape:connector-curvature="0"
       id="path4853"
       style="font-style:normal;font-variant:normal;font-weight:normal;font-stretch:normal;font-size:13.71528149px;line-height:1.25;font-family:BenchNine;-inkscape-font-specification:BenchNine;letter-spacing:0px;word-spacing:0px;fill:#e1c846;fill-opacity:1;stroke:none;stroke-width:0.34288207"
       d="m 167.16488,275.50787 h 0.58263 c 0.0938,0 0.16073,-0.0469 0.16073,-0.33484 v -3.77037 c 0,-1.0648 0.44869,-1.95549 1.05142,-1.95549 0.45539,0 0.66299,0.56923 0.66299,1.88183 v 3.84403 c 0,0.28797 0.0603,0.33484 0.16073,0.33484 h 0.58933 c 0.0937,0 0.16072,-0.0469 0.16072,-0.33484 v -3.7034 c 0,-2.18989 -0.50227,-2.77922 -1.37956,-2.77922 -0.51567,0 -1.13848,0.18082 -1.44654,1.28581 -0.007,0.0402 -0.0201,0.0737 -0.0402,0.0737 -0.0201,0 -0.0335,-0.0268 -0.0469,-0.0737 l -0.10715,-0.87729 c -0.0469,-0.30137 -0.12054,-0.32815 -0.22769,-0.32815 h -0.12724 c -0.10046,0 -0.16073,0.12724 -0.16073,0.41521 v 5.98704 c 0,0.28797 0.0737,0.33484 0.16742,0.33484 z" />
    <path
       inkscape:connector-curvature="0"
       id="path4855"
       style="font-style:normal;font-variant:normal;font-weight:normal;font-stretch:normal;font-size:13.71528149px;line-height:1.25;font-family:BenchNine;-inkscape-font-specification:BenchNine;letter-spacing:0px;word-spacing:0px;fill:#e1c846;fill-opacity:1;stroke:none;stroke-width:0.34288207"
       d="m 173.23897,274.87167 c -0.52905,0 -0.72326,-0.39512 -0.72326,-1.03133 0,-0.8706 0.38842,-1.50011 1.5135,-1.75459 0.0201,-0.007 0.28797,-0.0469 0.29467,-0.0469 0.0469,0 0.0469,0.37503 0.0469,0.46879 0,1.25902 -0.39511,2.36401 -1.13178,2.36401 z m -0.18081,0.71657 c 0.84381,0 1.25232,-0.52236 1.45993,-1.33939 0.0134,-0.0469 0.0469,-0.0402 0.0536,0 0.0134,0.18752 0.16742,0.81703 0.20761,0.98445 0.0469,0.18082 0.10715,0.27457 0.18081,0.27457 h 0.16073 c 0.0871,0 0.14063,-0.0937 0.14063,-0.32815 v -3.83063 c 0,-1.96889 -0.58263,-2.65868 -1.67423,-2.65868 -1.0715,0 -1.5135,0.52906 -1.74119,1.33269 -0.0335,0.12724 -0.0469,0.32145 -0.007,0.36163 0.0134,0.0536 0.49557,0.18752 0.56254,0.20091 0.0737,0.0201 0.12724,-0.0201 0.18082,-0.18082 0.17412,-0.57593 0.36163,-0.95765 0.95766,-0.95765 0.66969,0 0.81032,0.65629 0.81032,1.58716 v 0.36833 c -0.24778,0.19422 -2.67207,0.007 -2.67207,2.51135 0,1.06481 0.46879,1.67423 1.37957,1.67423 z" />
    <path
       inkscape:connector-curvature="0"
       id="path4857"
       style="font-style:normal;font-variant:normal;font-weight:normal;font-stretch:normal;font-size:13.71528149px;line-height:1.25;font-family:BenchNine;-inkscape-font-specification:BenchNine;letter-spacing:0px;word-spacing:0px;fill:#e1c846;fill-opacity:1;stroke:none;stroke-width:0.34288207"
       d="m 176.98925,275.50787 h 0.58263 c 0.10045,0 0.16073,-0.10045 0.16073,-0.38842 v -8.81983 c 0,-0.28797 -0.0603,-0.42191 -0.16073,-0.42191 h -0.58263 c -0.10045,0 -0.16742,0.13394 -0.16742,0.42191 v 8.81983 c 0,0.28797 0.067,0.38842 0.16742,0.38842 z" />
    <path
       inkscape:connector-curvature="0"
       id="path4859"
       style="font-style:normal;font-variant:normal;font-weight:normal;font-stretch:normal;font-size:13.71528149px;line-height:1.25;font-family:BenchNine;-inkscape-font-specification:BenchNine;letter-spacing:0px;word-spacing:0px;fill:#756a5e;fill-opacity:1;stroke:none;stroke-width:0.34288207"
       d="m 182.19276,272.58802 c -0.067,0 -0.0871,-0.0536 -0.0871,-0.10046 0,-0.0134 0,-0.0335 0.007,-0.0603 l 0.85051,-5.31065 c 0,-0.0134 0.007,-0.0335 0.0201,-0.0335 0.007,0 0.007,0.0134 0.0134,0.0402 l 0.77684,5.32404 c 0.0134,0.007 0.0134,0.0268 0.0134,0.0469 0,0.0469 -0.0134,0.0938 -0.0335,0.0938 z m -1.41975,2.91985 h 0.6496 c 0.10045,0 0.16073,-0.0469 0.20761,-0.30136 l 0.30805,-1.79477 c 0.0134,-0.0603 0.0268,-0.12055 0.0536,-0.12055 h 1.83495 c 0.0335,0 0.0469,0.0536 0.0603,0.11385 l 0.27457,1.80147 c 0.0402,0.26118 0.14063,0.30136 0.22769,0.30136 h 0.83042 c 0.067,0 0.10715,-0.0469 0.10715,-0.19421 0,-0.0603 -0.0268,-0.13394 -0.0335,-0.2076 l -1.5202,-8.88011 c -0.0469,-0.27457 -0.13394,-0.34824 -0.24109,-0.34824 h -1.03802 c -0.10715,0 -0.18752,0.0737 -0.24109,0.34824 l -1.57378,8.88011 c -0.007,0.0402 -0.007,0.0737 -0.007,0.10715 v 0.0938 c 0,0.15403 0.0402,0.2009 0.10045,0.2009 z" />
    <path
       inkscape:connector-curvature="0"
       id="path4861"
       style="font-style:normal;font-variant:normal;font-weight:normal;font-stretch:normal;font-size:13.71528149px;line-height:1.25;font-family:BenchNine;-inkscape-font-specification:BenchNine;letter-spacing:0px;word-spacing:0px;fill:#e1c846;fill-opacity:1;stroke:none;stroke-width:0.34288207"
       d="m 186.47879,275.50787 h 0.58263 c 0.0938,0 0.16072,-0.0469 0.16072,-0.33484 v -3.77037 c 0,-1.0648 0.4487,-1.95549 1.05142,-1.95549 0.45539,0 0.66299,0.56923 0.66299,1.88183 v 3.84403 c 0,0.28797 0.0603,0.33484 0.16073,0.33484 h 0.58933 c 0.0938,0 0.16072,-0.0469 0.16072,-0.33484 v -3.7034 c 0,-2.18989 -0.50226,-2.77922 -1.37956,-2.77922 -0.51566,0 -1.13848,0.18082 -1.44653,1.28581 -0.007,0.0402 -0.0201,0.0737 -0.0402,0.0737 -0.0201,0 -0.0335,-0.0268 -0.0469,-0.0737 l -0.10715,-0.87729 c -0.0469,-0.30137 -0.12055,-0.32815 -0.2277,-0.32815 h -0.12724 c -0.10045,0 -0.16073,0.12724 -0.16073,0.41521 v 5.98704 c 0,0.28797 0.0737,0.33484 0.16743,0.33484 z" />
    <path
       inkscape:connector-curvature="0"
       id="path4863"
       style="font-style:normal;font-variant:normal;font-weight:normal;font-stretch:normal;font-size:13.71528149px;line-height:1.25;font-family:BenchNine;-inkscape-font-specification:BenchNine;letter-spacing:0px;word-spacing:0px;fill:#e1c846;fill-opacity:1;stroke:none;stroke-width:0.34288207"
       d="m 192.55288,274.87167 c -0.52906,0 -0.72327,-0.39512 -0.72327,-1.03133 0,-0.8706 0.38842,-1.50011 1.5135,-1.75459 0.0201,-0.007 0.28797,-0.0469 0.29467,-0.0469 0.0469,0 0.0469,0.37503 0.0469,0.46879 0,1.25902 -0.39512,2.36401 -1.13178,2.36401 z m -0.18082,0.71657 c 0.84381,0 1.25232,-0.52236 1.45993,-1.33939 0.0134,-0.0469 0.0469,-0.0402 0.0536,0 0.0134,0.18752 0.16743,0.81703 0.20761,0.98445 0.0469,0.18082 0.10715,0.27457 0.18082,0.27457 h 0.16072 c 0.0871,0 0.14064,-0.0937 0.14064,-0.32815 v -3.83063 c 0,-1.96889 -0.58263,-2.65868 -1.67423,-2.65868 -1.07151,0 -1.5135,0.52906 -1.7412,1.33269 -0.0335,0.12724 -0.0469,0.32145 -0.007,0.36163 0.0134,0.0536 0.49558,0.18752 0.56254,0.20091 0.0737,0.0201 0.12725,-0.0201 0.18082,-0.18082 0.17412,-0.57593 0.36163,-0.95765 0.95766,-0.95765 0.66969,0 0.81033,0.65629 0.81033,1.58716 v 0.36833 c -0.24779,0.19422 -2.67207,0.007 -2.67207,2.51135 0,1.06481 0.46878,1.67423 1.37956,1.67423 z" />
    <path
       inkscape:connector-curvature="0"
       id="path4865"
       style="font-style:normal;font-variant:normal;font-weight:normal;font-stretch:normal;font-size:13.71528149px;line-height:1.25;font-family:BenchNine;-inkscape-font-specification:BenchNine;letter-spacing:0px;word-spacing:0px;fill:#e1c846;fill-opacity:1;stroke:none;stroke-width:0.34288207"
       d="m 196.30315,275.50787 h 0.58263 c 0.10046,0 0.16073,-0.10045 0.16073,-0.38842 v -8.81983 c 0,-0.28797 -0.0603,-0.42191 -0.16073,-0.42191 h -0.58263 c -0.10045,0 -0.16742,0.13394 -0.16742,0.42191 v 8.81983 c 0,0.28797 0.067,0.38842 0.16742,0.38842 z" />
    <path
       inkscape:connector-curvature="0"
       id="path4867"
       style="font-style:normal;font-variant:normal;font-weight:normal;font-stretch:normal;font-size:13.71528149px;line-height:1.25;font-family:BenchNine;-inkscape-font-specification:BenchNine;letter-spacing:0px;word-spacing:0px;fill:#e1c846;fill-opacity:1;stroke:none;stroke-width:0.34288207"
       d="m 199.21631,276.45884 c -0.14064,0 -0.45539,-0.12055 -0.51567,-0.12055 -0.0536,0 -0.14733,0.0737 -0.14733,0.41521 0,0.10045 0.007,0.19421 0.0335,0.24109 0.11384,0.18751 0.4286,0.26788 0.69648,0.26788 h 0.0871 c 0.59602,-0.0268 0.96435,-0.40852 1.22553,-1.84835 l 1.20545,-6.22144 c 0.007,-0.0469 0.0201,-0.10715 0.0201,-0.15403 0,-0.17412 -0.0469,-0.26787 -0.11385,-0.26787 h -0.45539 c -0.10715,0 -0.18082,0.067 -0.221,0.35493 l -0.83042,4.5606 c 0,0.0469 -0.0134,0.0737 -0.0268,0.0737 -0.0134,0 -0.0201,-0.0335 -0.0335,-0.0737 l -1.01123,-4.58069 c -0.0469,-0.28127 -0.12724,-0.33484 -0.2344,-0.33484 h -0.6362 c -0.0536,0 -0.10046,0.0937 -0.10046,0.24778 0,0.0469 0.007,0.10046 0.0134,0.14734 l 1.40635,5.49816 c 0.0603,0.25449 0.13394,0.52906 0.13394,0.73666 0,0.61612 -0.26788,1.05812 -0.49557,1.05812 z" />
    <path
       inkscape:connector-curvature="0"
       id="path4869"
       style="font-style:normal;font-variant:normal;font-weight:normal;font-stretch:normal;font-size:13.71528149px;line-height:1.25;font-family:BenchNine;-inkscape-font-specification:BenchNine;letter-spacing:0px;word-spacing:0px;fill:#e1c846;fill-opacity:1;stroke:none;stroke-width:0.34288207"
       d="m 205.70562,273.79346 c 0,-1.17865 -0.6429,-1.70771 -1.35947,-2.1564 -0.53576,-0.33485 -0.85721,-0.6563 -0.85721,-1.25233 0,-0.48217 0.25449,-0.91078 0.73666,-0.91078 0.38842,0 0.72327,0.16073 1.01793,0.47548 0.007,0.007 0.0134,0.007 0.0201,0.007 0.0871,0 0.31476,-0.37503 0.31476,-0.55584 0,-0.0335 -0.007,-0.0603 -0.0268,-0.0804 -0.36833,-0.38842 -0.83042,-0.62951 -1.38626,-0.62951 -0.91078,0 -1.5135,0.74336 -1.5135,1.7546 0,1.10499 0.55584,1.55368 1.25902,2.02916 0.59602,0.39512 0.96435,0.68978 0.96435,1.3059 0,0.54245 -0.27457,1.04472 -0.8706,1.04472 -0.46878,0 -0.81032,-0.20091 -1.18535,-0.63621 -0.007,-0.007 -0.0201,-0.0134 -0.0335,-0.0134 -0.11385,0 -0.38173,0.39512 -0.38173,0.55584 0,0.0201 0.007,0.0335 0.0134,0.0469 0.4286,0.51566 0.97775,0.80363 1.61395,0.80363 1.06481,0 1.67423,-0.70987 1.67423,-1.78808 z" />
    <path
       inkscape:connector-curvature="0"
       id="path4871"
       style="font-style:normal;font-variant:normal;font-weight:normal;font-stretch:normal;font-size:13.71528149px;line-height:1.25;font-family:BenchNine;-inkscape-font-specification:BenchNine;letter-spacing:0px;word-spacing:0px;fill:#e1c846;fill-opacity:1;stroke:none;stroke-width:0.34288207"
       d="m 206.87089,267.69257 h 0.66299 c 0.0938,0 0.15403,-0.0536 0.15403,-0.34154 v -0.69648 c 0,-0.28797 -0.0603,-0.34824 -0.15403,-0.34824 h -0.66299 c -0.10045,0 -0.16073,0.0603 -0.16073,0.34824 v 0.69648 c 0,0.28797 0.0603,0.34154 0.16073,0.34154 z m 0.0402,7.8153 h 0.58263 c 0.10046,0 0.16073,-0.12054 0.16073,-0.40851 v -5.92677 c 0,-0.28797 -0.0603,-0.40181 -0.16073,-0.40181 h -0.58263 c -0.10045,0 -0.16742,0.11384 -0.16742,0.40181 v 5.92677 c 0,0.28797 0.067,0.40851 0.16742,0.40851 z" />
    <path
       inkscape:connector-curvature="0"
       id="path4873"
       style="font-style:normal;font-variant:normal;font-weight:normal;font-stretch:normal;font-size:13.71528149px;line-height:1.25;font-family:BenchNine;-inkscape-font-specification:BenchNine;letter-spacing:0px;word-spacing:0px;fill:#e1c846;fill-opacity:1;stroke:none;stroke-width:0.34288207"
       d="m 211.92036,273.79346 c 0,-1.17865 -0.64291,-1.70771 -1.35948,-2.1564 -0.53575,-0.33485 -0.8572,-0.6563 -0.8572,-1.25233 0,-0.48217 0.25448,-0.91078 0.73666,-0.91078 0.38842,0 0.72327,0.16073 1.01793,0.47548 0.007,0.007 0.0134,0.007 0.0201,0.007 0.0871,0 0.31476,-0.37503 0.31476,-0.55584 0,-0.0335 -0.007,-0.0603 -0.0268,-0.0804 -0.36833,-0.38842 -0.83042,-0.62951 -1.38626,-0.62951 -0.91078,0 -1.51351,0.74336 -1.51351,1.7546 0,1.10499 0.55585,1.55368 1.25902,2.02916 0.59603,0.39512 0.96436,0.68978 0.96436,1.3059 0,0.54245 -0.27457,1.04472 -0.8706,1.04472 -0.46878,0 -0.81032,-0.20091 -1.18535,-0.63621 -0.007,-0.007 -0.0201,-0.0134 -0.0335,-0.0134 -0.11384,0 -0.38172,0.39512 -0.38172,0.55584 0,0.0201 0.007,0.0335 0.0134,0.0469 0.42861,0.51566 0.97775,0.80363 1.61396,0.80363 1.06481,0 1.67423,-0.70987 1.67423,-1.78808 z" />
  </g>
</svg>
